<svg width="18" height="18" viewBox="0 0 18 18" fill="none" xmlns="http://www.w3.org/2000/svg">
<g id="half-star">
<path id="Vector" d="M5.89657 6.58521L6.1567 6.54741L6.27304 6.31169L8.29124 2.22235L7.84287 2.00106L8.29124 2.22235C8.29931 2.20601 8.30746 2.19958 8.31356 2.19596C8.32145 2.19128 8.33311 2.1875 8.34729 2.1875C8.36147 2.1875 8.37313 2.19128 8.38102 2.19596C8.38712 2.19958 8.39527 2.20601 8.40334 2.22235L8.40334 2.22235L10.4216 6.31169L10.5379 6.54741L10.798 6.58521L15.3109 7.24097L15.3828 6.74617L15.3109 7.24097C15.3289 7.24359 15.3375 7.24936 15.3429 7.25405C15.3498 7.26011 15.357 7.27003 15.3613 7.28351C15.3657 7.297 15.3657 7.30925 15.3637 7.31818C15.3622 7.32509 15.3586 7.33483 15.3455 7.34755L15.3455 7.34757L12.08 10.5307L11.8917 10.7142L11.9362 10.9733L12.707 15.4679L12.707 15.468C12.7101 15.4859 12.7073 15.4958 12.7045 15.5023C12.7009 15.5108 12.6937 15.5207 12.6822 15.529C12.6707 15.5373 12.6591 15.5411 12.6499 15.542C12.6429 15.5426 12.6325 15.5422 12.6164 15.5338C12.6164 15.5338 12.6164 15.5338 12.6164 15.5338L8.57996 13.4117L8.34729 13.2894L8.11462 13.4117L4.07824 15.5338C4.07823 15.5338 4.07821 15.5338 4.0782 15.5338C4.0621 15.5422 4.05174 15.5426 4.04467 15.542C4.03553 15.5411 4.02386 15.5373 4.01238 15.529C4.0009 15.5206 3.99369 15.5107 3.99006 15.5023C3.98725 15.4958 3.98443 15.4858 3.98751 15.4679L3.4947 15.3834L3.98751 15.4679L4.7584 10.9733L4.80284 10.7142L4.6146 10.5307L1.34907 7.34757C1.33602 7.33485 1.33243 7.32511 1.33087 7.31819C1.32886 7.30924 1.32887 7.29698 1.33325 7.2835C1.33763 7.27001 1.34483 7.2601 1.35171 7.25404C1.35704 7.24936 1.36567 7.24359 1.38369 7.24097L5.89657 6.58521ZM7.84724 12.6563L7.84724 13.1563H8.34724C8.35752 13.1563 8.36742 13.1587 8.37634 13.1634L8.37637 13.1634L11.6657 14.8927L12.5625 15.3642L12.3912 14.3657L11.763 10.703C11.763 10.703 11.763 10.7029 11.763 10.7029C11.7595 10.6825 11.7663 10.6619 11.7809 10.6477L11.781 10.6476L14.4421 8.05362L15.1675 7.34646L14.165 7.20077L10.4874 6.66639C10.4874 6.66639 10.4874 6.66639 10.4874 6.66639C10.467 6.66342 10.4494 6.65063 10.4403 6.6322L9.99197 6.85348L10.4403 6.6322L8.79566 3.29972L7.84729 3.521L7.84724 12.6563Z" fill="#F2A742" stroke="#C45500"/>
</g>
</svg>
